<svg id="Page_8" data-name="Page 8" xmlns="http://www.w3.org/2000/svg" viewBox="0 0 197.13 98.99"><defs><style>.cls-1,.cls-2{fill:#0077AA;}.cls-2,.cls-3,.cls-4{fill-rule:evenodd;}.cls-3{fill:#0033AA;}.cls-4{fill:#CC3300;}.cls-5{fill:none;}</style></defs><title>logo</title><path class="cls-1" d="M184.91,84.94h9.65v-3a3.19,3.19,0,0,0-1.21-2.53,4.48,4.48,0,0,0-3-1.09h-1.21a4.47,4.47,0,0,0-3,1.09,3.06,3.06,0,0,0-1.21,2.53v3Zm2.41,20.5q-6.57,0-10-2.72t-3.31-8.14V82.53q0-5.37,3.31-8.14t10-2.72h4.82q6.27,0,9.47,2.72t3.19,8.14v7.84h-19.9v4.22a3.4,3.4,0,0,0,1.15,2.65,4.62,4.62,0,0,0,3.07,1h1.21a4.63,4.63,0,0,0,2.83-.85,2.53,2.53,0,0,0,1.09-2.17v-0.6h10.55V96.4a7.71,7.71,0,0,1-3.44,6.57,15.66,15.66,0,0,1-9.23,2.47h-4.82Zm-38.65-20.5h9.65v-3a3.19,3.19,0,0,0-1.21-2.53,4.48,4.48,0,0,0-3-1.09h-1.21a4.47,4.47,0,0,0-3,1.09,3.07,3.07,0,0,0-1.21,2.53v3Zm2.41,20.5q-6.58,0-10-2.72t-3.32-8.14V82.53q0-5.37,3.32-8.14t10-2.72h4.82q6.27,0,9.47,2.72t3.2,8.14v7.84h-19.9v4.22a3.4,3.4,0,0,0,1.15,2.65,4.63,4.63,0,0,0,3.07,1h1.21a4.65,4.65,0,0,0,2.84-.85A2.53,2.53,0,0,0,158,95.19v-0.6h10.56V96.4a7.72,7.72,0,0,1-3.44,6.57,15.65,15.65,0,0,1-9.23,2.47h-4.82Zm-42.33-.6-9-32.56h11.16l6,22.91,5.43-22.91h11.76l-9.65,32.56H108.75Zm-59.88,0V72.28H59.72v3a7.57,7.57,0,0,1,3.44-2.66,12,12,0,0,1,5-1,7.16,7.16,0,0,1,4.28,1.39A9.72,9.72,0,0,1,75.7,76.8a9.28,9.28,0,0,1,4-3.8,13.52,13.52,0,0,1,5.91-1.33,9.79,9.79,0,0,1,6.75,2.53,7.93,7.93,0,0,1,2.89,5.91v24.73H85V84.34a4.07,4.07,0,0,0-1.15-3,3.79,3.79,0,0,0-5.55,0,4.32,4.32,0,0,0-1.15,3v20.5H67V84.34a4.16,4.16,0,0,0-1-2.78,3.52,3.52,0,0,0-5.19,0,4.16,4.16,0,0,0-1,2.78v20.5H48.87Zm-41.19,0V59h35V69.26H20.34V77.1H41.45v8.44H20.34v9H42.65v10.25h-35Z" transform="translate(-7.68 -6.46)"/><path class="cls-2" d="M82.51,7.05h0a8.31,8.31,0,0,1,4.6,10.79L70.89,58.19A8.29,8.29,0,0,1,55.5,52L71.72,11.65a8.31,8.31,0,0,1,10.78-4.6" transform="translate(-7.68 -6.46)"/><path class="cls-3" d="M76.34,7.05h0a8.32,8.32,0,0,0-4.6,10.79L88,58.19a8.31,8.31,0,0,0,10.78,4.6h0A8.31,8.31,0,0,0,103.34,52L87.13,11.65a8.32,8.32,0,0,0-10.79-4.6" transform="translate(-7.68 -6.46)"/><path class="cls-2" d="M114.94,7.05h0a8.31,8.31,0,0,1,4.6,10.79L103.32,58.19A8.29,8.29,0,0,1,87.94,52l16.22-40.35a8.32,8.32,0,0,1,10.79-4.6" transform="translate(-7.68 -6.46)"/><path class="cls-2" d="M108.71,7.05h0a8.32,8.32,0,0,0-4.6,10.79l16.22,40.35a8.31,8.31,0,0,0,10.78,4.6h0A8.32,8.32,0,0,0,135.72,52L119.5,11.65a8.32,8.32,0,0,0-10.79-4.6" transform="translate(-7.68 -6.46)"/><path class="cls-4" d="M147.3,7.05h0a8.32,8.32,0,0,1,4.6,10.79L135.68,58.19a8.31,8.31,0,0,1-10.78,4.6h0A8.32,8.32,0,0,1,120.29,52l16.22-40.35a8.32,8.32,0,0,1,10.79-4.6" transform="translate(-7.68 -6.46)"/><path class="cls-5" d="M-574.17,162.33" transform="translate(-7.68 -6.46)"/><path class="cls-5" d="M-1764.72,162.33" transform="translate(-7.68 -6.46)"/></svg>